<svg width="22" height="22" viewBox="0 0 22 22" fill="none" xmlns="http://www.w3.org/2000/svg">
<g clip-path="url(#clip0_43_211)">
<path d="M10.5217 1.4348V20.5652C10.5217 20.8293 10.7359 21.0435 11 21.0435C11.2641 21.0435 11.4783 20.8293 11.4783 20.5652V1.4348C11.4783 1.17067 11.2641 0.956543 11 0.956543C10.7359 0.956543 10.5217 1.17067 10.5217 1.4348Z" stroke="#393B34" stroke-width="2"/>
<path d="M1.4348 11.4785H20.5652C20.8293 11.4785 21.0435 11.2643 21.0435 11.0002C21.0435 10.7361 20.8293 10.522 20.5652 10.522H1.4348C1.17067 10.522 0.956543 10.7361 0.956543 11.0002C0.956543 11.2643 1.17067 11.4785 1.4348 11.4785Z" stroke="#393B34" stroke-width="2"/>
</g>
<defs>
<clipPath id="clip0_43_211">
<rect width="22" height="22" fill="white"/>
</clipPath>
</defs>
</svg>
